<svg width="172" height="161" viewBox="0 0 172 161" fill="none" xmlns="http://www.w3.org/2000/svg">
<path d="M86 16.5L133 4L162.5 30.5L161 75.5L146.5 102.5L86 161V16.5Z" fill="#C8D6AF"/>
<path fill-rule="evenodd" clip-rule="evenodd" d="M85.8643 14.1041C38.2299 -34.8612 -80.8668 50.8227 85.8643 161V14.1041Z" fill="#870058"/>
<path fill-rule="evenodd" clip-rule="evenodd" d="M85.8652 29.4956L78.1695 21.5852C60.1053 3.01658 26.9824 9.42436 15.0255 32.7693C9.41197 43.7494 8.14544 59.6025 18.3957 79.8348C28.2704 99.3157 48.8139 122.65 85.8652 148.066C122.917 122.65 143.449 99.3157 153.335 79.8348C163.585 59.5918 162.329 43.7494 156.705 32.7693C144.748 9.42436 111.625 3.00584 93.561 21.5744L85.8652 29.4956ZM85.8652 161C-78.7084 52.2502 35.1934 -32.6287 83.9762 12.2687C84.6202 12.859 85.2534 13.4708 85.8652 14.1041C86.4708 13.4714 87.101 12.8627 87.7543 12.2794C136.526 -32.6502 250.439 52.2395 85.8652 161Z" fill="black"/>
<path d="M59.5 69.5L90.5 43.5L135.5 50.5L136.5 63L135.5 81L109 91L90.5 66L72.5 76.5L59.5 69.5Z" fill="#870058"/>
<path d="M36 78L32.5 50L75 44L81.5 48.5L56 70.5L73 75L88 67L109.5 94L71 121.5L36 78Z" fill="#C8D6AF"/>
<path d="M98.4031 39.0018C96.2424 39.0174 94.0973 39.1225 91.8314 39.7298C89.3631 40.3999 87.0209 41.469 84.8976 42.895C81.9154 41.1431 79.0266 39.7026 76.2586 39.3639C72.8209 38.9395 69.6284 39.1692 65.9182 39.2471C61.5189 39.3366 58.6496 41.583 53.9933 43.3817C49.3409 45.1725 43.3493 46.9089 34.8932 46.9089H31V84.3811L33.1919 85.4751L40.3671 89.0062L65.9182 117.473L66.0389 117.594C68.9588 120.483 72.8987 121.199 76.3793 121.001C79.8637 120.806 83.134 119.786 85.7463 118.205C91.4966 114.736 107.159 103.847 107.159 103.847L107.525 103.602L107.77 103.36C109.623 101.519 110.554 99.2726 111.177 96.9133L126.138 89.3683L137.331 85.5996L140.01 84.7431V46.9089H136.117C129.572 46.9537 123.083 45.7129 117.017 43.2571C112.36 41.4389 109.534 39.2159 105.088 39.1225C102.713 39.0758 100.556 38.9862 98.3993 39.0018H98.4031ZM98.5199 46.7882C100.272 46.7726 102.296 46.8661 104.85 46.9089C105.259 46.9245 109 48.5207 114.217 50.5607C118.628 52.2932 124.756 53.831 132.223 54.3294V79.1486L123.218 82.1931H122.977L122.732 82.3099L110.935 88.2743C110.309 86.4676 109.315 84.8105 108.015 83.4078L107.77 83.0418L91.2241 62.727L88.7908 59.6825L85.7463 62.1158L75.2853 70.6341C71.7736 73.0674 68.9277 72.3666 66.0389 71.0001C65.2019 70.603 65.2486 70.4823 64.5789 70.0268L82.3437 55.3027L82.585 55.0613C87.8603 49.8288 91.1034 48.0185 93.8987 47.2749C95.3003 46.8933 96.7758 46.8038 98.5238 46.7882H98.5199ZM71.396 46.9089C72.6949 46.8599 73.9957 46.9003 75.2892 47.0296C76.3092 47.1503 77.4655 48.0185 78.4543 48.3689C78.0572 48.7348 77.7691 48.9451 77.3565 49.3422L77.1151 49.5874L55.8231 67.2237L52.5372 69.9022L55.4571 72.9428C55.4571 72.9428 58.2719 75.9873 62.6362 78.0546C67.0005 80.1219 73.7397 81.2937 79.7897 77.0813L80.035 76.836L87.5761 70.6341L101.934 88.2743L102.055 88.5195L102.176 88.6363C104.745 91.1786 104.687 95.1769 102.176 97.7659C102.145 97.7932 102.207 97.8555 102.176 97.8827C102.145 97.9022 101.631 98.2058 101.568 98.2526L96.4565 91.3149L90.1301 95.94L95.1212 102.629C93.0967 103.999 92.1857 104.715 90.0094 106.16L84.7808 99.1013L78.4504 103.726L83.4415 110.415C82.9977 110.687 82.0867 111.299 81.7363 111.513C80.5061 112.256 78.1312 113.093 76.0172 113.214C74.0278 113.323 72.5055 112.864 71.7619 112.241L71.6412 112.12L45.6034 83.2871L45.1168 82.6758L38.7864 79.5145V54.3294C46.2225 53.8427 52.3971 52.3672 56.7925 50.6814C61.9938 48.6881 65.708 47.0452 66.1596 47.0296L71.3921 46.9089H71.396Z" fill="black"/>
</svg>
